<svg xmlns="http://www.w3.org/2000/svg" aria-hidden="true" focusable="false" data-prefix="fab" data-icon="facebook-square" role="img" width="448" height="512"><rect id="backgroundrect" width="100%" height="100%" x="0" y="0" fill="none" stroke="none"/><g class="currentLayer" style=""><title>Layer 1</title><path fill="#959da5" d="M399.4594594836235,32.540540516376495 H47.459459483623505 A48,48 0 0 0 -0.5405405163764954,80.5405405163765 v352 a48,48 0 0 0 48,48 h137.25 V328.2305405163765 h-63 V256.5405405163765 h63 v-54.64 c0,-62.15 37,-96.48 93.67,-96.48 c27.14,0 55.52,4.84 55.52,4.84 v61 h-31.27 c-30.81,0 -40.42,19.12 -40.42,38.73 V256.5405405163765 h68.78 l-11,71.69 h-57.78 V480.5405405163765 H399.4594594836235 a48,48 0 0 0 48,-48 V80.5405405163765 a48,48 0 0 0 -48,-48 z" id="svg_1" class="selected" fill-opacity="1" stroke="none" opacity="1"/></g></svg>