<svg xmlns="http://www.w3.org/2000/svg" aria-hidden="true" focusable="false" data-prefix="fab" data-icon="linkedin" role="img" width="448" height="512"><rect id="backgroundrect" width="100%" height="100%" x="0" y="0" fill="none" stroke="none"/><g class="currentLayer" style=""><title>Layer 1</title><path fill="#959da5" d="M412.2162163257599,34.16216206550598 H28.116216325759886 C10.516216325759888,34.16216206550598 -3.7837836742401123,48.66216206550598 -3.7837836742401123,66.46216206550598 v383.4 C-3.7837836742401123,467.662162065506 10.516216325759888,482.162162065506 28.116216325759886,482.162162065506 H412.2162163257599 c17.6,0 32,-14.5 32,-32.3 V66.46216206550598 c0,-17.8 -14.4,-32.3 -32,-32.3 zM131.6162163257599,418.162162065506 H65.21621632575989 V204.36216206550597 h66.5 V418.162162065506 zm-33.2,-243 c-21.3,0 -38.5,-17.3 -38.5,-38.5 S77.1162163257599,98.16216206550598 98.41621632575989,98.16216206550598 c21.2,0 38.5,17.3 38.5,38.5 c0,21.3 -17.2,38.5 -38.5,38.5 zm282.1,243 h-66.4 V314.162162065506 c0,-24.8 -0.5,-56.7 -34.5,-56.7 c-34.6,0 -39.9,27 -39.9,54.9 V418.162162065506 h-66.4 V204.36216206550597 h63.7 v29.2 h0.9 c8.9,-16.8 30.6,-34.5 62.9,-34.5 c67.2,0 79.7,44.3 79.7,101.9 V418.162162065506 z" id="svg_1" class="selected" fill-opacity="1"/></g></svg>